<svg width="13" height="15" viewBox="0 0 17 15" fill="none" xmlns="http://www.w3.org/2000/svg">
<g id="Layer_1" clip-path="url(#clip0_1_687)">
<path id="Vector" d="M11.2812 11.6159H14.7565V10.4424H15.8545V11.5704C16.2589 11.5892 16.6168 11.606 17.0009 11.6239V12.7539H15.8836V13.8502H14.7827V12.7647H11.2968V11.5981L11.2812 11.6149V11.6159Z" fill="#222222"/>
<path id="Vector_2" d="M14.7721 2.31447V1.17456H15.8439C15.8603 1.53109 15.8778 1.88366 15.8962 2.28971H16.9719V3.35632C16.9428 3.37811 16.9205 3.40881 16.8943 3.41278C16.5665 3.4514 16.1125 3.36722 15.9438 3.55341C15.7682 3.74752 15.8671 4.20209 15.8429 4.57942H14.7905C14.776 4.23081 14.7595 3.86438 14.742 3.43951H11.3414V2.31546H14.7721V2.31447Z" fill="#222222"/>
<path id="Vector_3" d="M3.36956 11.5882V12.7311H0.00195312V11.605H3.38605L3.36956 11.5882Z" fill="#222222"/>
<path id="Vector_4" d="M0 3.38604V2.33527H3.33657V3.38604H0Z" fill="#222222"/>
<path id="Vector_5" d="M10.2386 4.57745C10.2212 4.94983 10.2037 5.3222 10.1824 5.76787H9.09314L9.10866 5.78272V4.64282C9.49663 4.624 9.872 4.60617 10.2483 4.58835L10.2386 4.57844V4.57745Z" fill="#222222"/>
<path id="Vector_6" d="M3.38606 11.605V10.4117H4.55192L4.53834 10.3978V11.5872C4.11642 11.5872 3.74299 11.5872 3.36957 11.5872L3.38606 11.6041V11.605Z" fill="#222222"/>
<path id="Vector_7" d="M6.76142 6.93847C6.40255 6.90677 5.9428 6.99789 5.71681 6.80477C5.52573 6.64136 5.60624 6.14717 5.56744 5.79955L5.55774 5.80846C5.93795 5.79064 6.31914 5.77281 6.74494 5.75201C6.74494 6.18282 6.74494 6.56906 6.74494 6.95431L6.76142 6.93748V6.93847Z" fill="#222222"/>
<path id="Vector_8" d="M9.09408 5.76688C9.08729 5.78173 9.07759 5.79659 9.07565 5.81243C9.04073 6.165 9.12997 6.6483 8.93986 6.83349C8.74394 7.02463 8.27643 6.9256 7.92822 6.95333L7.94568 6.97016V5.78173C8.32783 5.78173 8.71872 5.78173 9.1096 5.78173L9.09408 5.76787V5.76688Z" fill="#222222"/>
<path id="Vector_9" d="M7.89139 8.17544C7.73717 8.15068 7.58393 8.10809 7.42971 8.10512C6.79731 8.09324 6.79925 8.0972 6.79343 7.42672C6.79246 7.26431 6.77306 7.1009 6.76142 6.93848L6.74493 6.95531C7.14455 6.95927 7.54416 6.96423 7.94474 6.96918L7.92728 6.95234C7.91273 7.36334 7.89721 7.77434 7.88266 8.18435L7.89139 8.17445V8.17544Z" fill="#222222"/>
<path id="Vector_10" d="M14.6887 0V1.08742H13.646V0H14.6887Z" fill="#222222"/>
<path id="Vector_11" d="M4.57713 4.53882C4.20273 4.5715 3.82737 4.60419 3.42194 4.63984V3.51776H4.5005C4.52475 3.87231 4.54803 4.21002 4.56937 4.54972C4.56937 4.55071 4.57713 4.53981 4.57713 4.53981V4.53882Z" fill="#222222"/>
<path id="Vector_12" d="M5.56645 5.80055C5.23959 5.78174 4.91272 5.76391 4.5199 5.74212C4.5393 5.33211 4.55772 4.93597 4.57615 4.53983C4.57615 4.53983 4.56839 4.55072 4.56936 4.54973C4.90787 4.58637 5.24541 4.625 5.66054 4.67154C5.62562 5.05778 5.59167 5.43412 5.55772 5.80947L5.56645 5.80055Z" fill="#222222"/>
<path id="Vector_13" d="M14.6702 5.74707H13.6363V4.64777H14.6702V5.74707Z" fill="#222222"/>
<path id="Vector_14" d="M6.73809 9.21331H5.67505V8.13382H6.73809V9.21331Z" fill="#222222"/>
<path id="Vector_15" d="M7.88263 8.18534C8.25217 8.15068 8.62075 8.11602 9.0223 8.07739V9.20244H7.94568C7.92725 8.84789 7.90979 8.51117 7.89233 8.17445L7.88263 8.18534Z" fill="#222222"/>
<path id="Vector_16" d="M10.2881 10.3612C9.90784 10.3849 9.52763 10.4087 9.11346 10.4345V9.30841H10.1552C10.1988 9.67187 10.2405 10.0185 10.2813 10.3671L10.2881 10.3612Z" fill="#222222"/>
<path id="Vector_17" d="M11.2968 11.5991H10.1882C10.2241 11.1465 10.2561 10.7543 10.2881 10.3622C10.2881 10.3622 10.2803 10.3691 10.2813 10.3681C10.6082 10.3938 10.934 10.4206 11.2823 10.4493C11.2823 10.8484 11.2823 11.2327 11.2823 11.6159L11.2978 11.5991H11.2968Z" fill="#222222"/>
<path id="Vector_18" d="M13.6401 13.9185H14.6867V15H13.6401V13.9185Z" fill="#222222"/>
<path id="Vector_19" d="M10.2493 4.58735C10.2318 4.24567 10.2134 3.90499 10.194 3.52469H11.2881V4.57744C10.9301 4.57744 10.5849 4.57744 10.2396 4.57744L10.2493 4.58735Z" fill="#222222"/>
<path id="Vector_20" d="M4.55192 10.4117V9.31631H5.59847V10.3978C5.23378 10.3978 4.88654 10.3978 4.53931 10.3978L4.55289 10.4117H4.55192Z" fill="#222222"/>
<path id="Vector_21" d="M13.6314 10.3829V9.32227H14.6692V10.3829H13.6314Z" fill="#222222"/>
</g>
<defs>
<clipPath id="clip0_1_687">
<rect width="17" height="15" fill="white"/>
</clipPath>
</defs>
</svg>
